<?xml version="1.0" encoding="UTF-8" standalone="no"?>
<!DOCTYPE svg PUBLIC "-//W3C//DTD SVG 1.0//EN" "http://www.w3.org/TR/2001/REC-SVG-20010904/DTD/svg10.dtd">
<svg xmlns="http://www.w3.org/2000/svg" version="1.0" viewBox="0.00 0.00 512.00 512.00">
<g stroke-width="2.00" fill="none" stroke-linecap="butt">
<path stroke="#b39dc6" vector-effect="non-scaling-stroke" d="
  M 255.81 104.70
  C 177.55 86.96 104.10 153.84 115.54 233.19
  Q 123.04 285.19 167.56 315.21
  Q 168.46 315.81 169.04 316.73
  Q 198.07 362.55 227.18 408.31
  C 231.12 414.51 235.94 404.93 237.38 402.30
  Q 237.63 401.85 237.38 401.40
  C 234.12 395.43 233.02 390.22 233.01 382.92
  Q 232.99 334.84 233.00 286.75
  Q 233.00 284.19 236.38 280.13
  A 0.40 0.40 0.0 0 0 236.05 279.48
  C 196.21 282.06 163.43 249.15 169.00 209.50
  C 172.73 182.95 194.16 160.43 220.76 156.53
  C 256.86 151.25 288.76 176.79 292.18 212.97
  C 292.42 215.50 292.09 219.02 292.31 222.05
  Q 292.36 222.80 292.88 222.25
  Q 301.65 213.07 310.74 204.19
  C 317.56 197.52 323.18 199.98 329.32 206.19
  Q 337.53 214.50 345.65 222.94
  Q 346.04 223.33 346.14 222.79
  Q 346.47 220.99 346.47 219.78
  C 346.30 164.23 310.20 117.03 255.81 104.70"
/>
<path stroke="#b39dc6" vector-effect="non-scaling-stroke" d="
  M 241.37 285.47
  A 3.70 3.70 0.0 0 0 244.02 291.75
  L 393.78 291.75
  A 3.70 3.70 0.0 0 0 396.43 285.47
  L 321.55 208.61
  A 3.70 3.70 0.0 0 0 316.25 208.61
  L 241.37 285.47"
/>
<path stroke="#b39dc6" vector-effect="non-scaling-stroke" d="
  M 241.65 393.38
  C 245.39 404.12 255.09 410.14 266.52 410.22
  Q 278.59 410.31 290.76 410.23
  Q 291.25 410.22 291.25 409.74
  L 291.25 356.25
  Q 291.25 351.50 296.00 351.50
  L 342.25 351.50
  A 4.25 4.25 0.0 0 1 346.50 355.75
  L 346.50 409.74
  Q 346.50 410.25 347.01 410.25
  C 357.09 410.25 371.39 411.68 380.25 408.87
  C 393.15 404.77 397.57 394.30 397.54 381.58
  Q 397.43 340.23 397.53 298.87
  Q 397.53 298.29 396.96 298.35
  C 395.11 298.55 393.19 298.99 391.48 299.00
  Q 318.67 299.01 245.85 298.99
  C 244.19 298.99 242.39 298.64 240.72 298.44
  Q 240.26 298.38 240.26 298.85
  Q 240.22 340.34 240.27 381.83
  Q 240.28 389.43 241.65 393.38"
/>
<path stroke="#b39dc6" vector-effect="non-scaling-stroke" d="
  M 339.26 359.02
  A 0.27 0.27 0.0 0 0 338.99 358.75
  L 298.77 358.75
  A 0.27 0.27 0.0 0 0 298.50 359.02
  L 298.50 409.98
  A 0.27 0.27 0.0 0 0 298.77 410.25
  L 338.99 410.25
  A 0.27 0.27 0.0 0 0 339.26 409.98
  L 339.26 359.02"
/>
<path stroke="#b39dc6" vector-effect="non-scaling-stroke" d="
  M 336.96 257.61
  A 18.07 18.07 0.0 0 0 318.89 239.54
  A 18.07 18.07 0.0 0 0 300.82 257.61
  A 18.07 18.07 0.0 0 0 318.89 275.68
  A 18.07 18.07 0.0 0 0 336.96 257.61"
/>
<path stroke="#b39dc6" vector-effect="non-scaling-stroke" d="
  M 329.74 257.61
  A 10.83 10.83 0.0 0 0 318.91 246.78
  A 10.83 10.83 0.0 0 0 308.08 257.61
  A 10.83 10.83 0.0 0 0 318.91 268.44
  A 10.83 10.83 0.0 0 0 329.74 257.61"
/>
<path stroke="#b39dc6" vector-effect="non-scaling-stroke" d="
  M 297.7849 310.6116
  A 3.83 3.83 0.0 0 0 293.9616 306.7750
  L 265.3816 306.7251
  A 3.83 3.83 0.0 0 0 261.5450 310.5484
  L 261.4951 339.1284
  A 3.83 3.83 0.0 0 0 265.3184 342.9650
  L 293.8984 343.0149
  A 3.83 3.83 0.0 0 0 297.7350 339.1916
  L 297.7849 310.6116"
/>
<path stroke="#b39dc6" vector-effect="non-scaling-stroke" d="
  M 376.2653 310.4014
  A 3.62 3.62 0.0 0 0 372.6516 306.7751
  L 343.8916 306.7249
  A 3.62 3.62 0.0 0 0 340.2653 310.3386
  L 340.2147 339.3386
  A 3.62 3.62 0.0 0 0 343.8284 342.9649
  L 372.5884 343.0151
  A 3.62 3.62 0.0 0 0 376.2147 339.4014
  L 376.2653 310.4014"
/>
<path stroke="#b39dc6" vector-effect="non-scaling-stroke" d="
  M 290.50 314.31
  A 0.31 0.31 0.0 0 0 290.19 314.00
  L 269.07 314.00
  A 0.31 0.31 0.0 0 0 268.76 314.31
  L 268.76 335.43
  A 0.31 0.31 0.0 0 0 269.07 335.74
  L 290.19 335.74
  A 0.31 0.31 0.0 0 0 290.50 335.43
  L 290.50 314.31"
/>
<path stroke="#b39dc6" vector-effect="non-scaling-stroke" d="
  M 369.00 314.27
  A 0.26 0.26 0.0 0 0 368.74 314.01
  L 347.74 314.01
  A 0.26 0.26 0.0 0 0 347.48 314.27
  L 347.48 335.49
  A 0.26 0.26 0.0 0 0 347.74 335.75
  L 368.74 335.75
  A 0.26 0.26 0.0 0 0 369.00 335.49
  L 369.00 314.27"
/>
</g>
<path fill="#673b8d" d="
  M 249.28 0.00
  L 263.04 0.00
  C 398.04 4.75 506.03 110.31 512.00 245.83
  L 512.00 266.55
  C 505.81 400.16 400.21 506.01 266.42 512.00
  L 245.44 512.00
  C 110.35 505.05 4.05 398.39 0.00 262.42
  L 0.00 250.68
  C 2.16 184.50 27.37 122.96 73.95 76.30
  Q 145.63 4.49 249.28 0.00
  Z
  M 255.81 104.70
  C 177.55 86.96 104.10 153.84 115.54 233.19
  Q 123.04 285.19 167.56 315.21
  Q 168.46 315.81 169.04 316.73
  Q 198.07 362.55 227.18 408.31
  C 231.12 414.51 235.94 404.93 237.38 402.30
  Q 237.63 401.85 237.38 401.40
  C 234.12 395.43 233.02 390.22 233.01 382.92
  Q 232.99 334.84 233.00 286.75
  Q 233.00 284.19 236.38 280.13
  A 0.40 0.40 0.0 0 0 236.05 279.48
  C 196.21 282.06 163.43 249.15 169.00 209.50
  C 172.73 182.95 194.16 160.43 220.76 156.53
  C 256.86 151.25 288.76 176.79 292.18 212.97
  C 292.42 215.50 292.09 219.02 292.31 222.05
  Q 292.36 222.80 292.88 222.25
  Q 301.65 213.07 310.74 204.19
  C 317.56 197.52 323.18 199.98 329.32 206.19
  Q 337.53 214.50 345.65 222.94
  Q 346.04 223.33 346.14 222.79
  Q 346.47 220.99 346.47 219.78
  C 346.30 164.23 310.20 117.03 255.81 104.70
  Z
  M 241.37 285.47
  A 3.70 3.70 0.0 0 0 244.02 291.75
  L 393.78 291.75
  A 3.70 3.70 0.0 0 0 396.43 285.47
  L 321.55 208.61
  A 3.70 3.70 0.0 0 0 316.25 208.61
  L 241.37 285.47
  Z
  M 241.65 393.38
  C 245.39 404.12 255.09 410.14 266.52 410.22
  Q 278.59 410.31 290.76 410.23
  Q 291.25 410.22 291.25 409.74
  L 291.25 356.25
  Q 291.25 351.50 296.00 351.50
  L 342.25 351.50
  A 4.25 4.25 0.0 0 1 346.50 355.75
  L 346.50 409.74
  Q 346.50 410.25 347.01 410.25
  C 357.09 410.25 371.39 411.68 380.25 408.87
  C 393.15 404.77 397.57 394.30 397.54 381.58
  Q 397.43 340.23 397.53 298.87
  Q 397.53 298.29 396.96 298.35
  C 395.11 298.55 393.19 298.99 391.48 299.00
  Q 318.67 299.01 245.85 298.99
  C 244.19 298.99 242.39 298.64 240.72 298.44
  Q 240.26 298.38 240.26 298.85
  Q 240.22 340.34 240.27 381.83
  Q 240.28 389.43 241.65 393.38
  Z
  M 339.26 359.02
  A 0.27 0.27 0.0 0 0 338.99 358.75
  L 298.77 358.75
  A 0.27 0.27 0.0 0 0 298.50 359.02
  L 298.50 409.98
  A 0.27 0.27 0.0 0 0 298.77 410.25
  L 338.99 410.25
  A 0.27 0.27 0.0 0 0 339.26 409.98
  L 339.26 359.02
  Z"
/>
<path fill="#ffffff" d="
  M 255.81 104.70
  C 310.20 117.03 346.30 164.23 346.47 219.78
  Q 346.47 220.99 346.14 222.79
  Q 346.04 223.33 345.65 222.94
  Q 337.53 214.50 329.32 206.19
  C 323.18 199.98 317.56 197.52 310.74 204.19
  Q 301.65 213.07 292.88 222.25
  Q 292.36 222.80 292.31 222.05
  C 292.09 219.02 292.42 215.50 292.18 212.97
  C 288.76 176.79 256.86 151.25 220.76 156.53
  C 194.16 160.43 172.73 182.95 169.00 209.50
  C 163.43 249.15 196.21 282.06 236.05 279.48
  A 0.40 0.40 0.0 0 1 236.38 280.13
  Q 233.00 284.19 233.00 286.75
  Q 232.99 334.84 233.01 382.92
  C 233.02 390.22 234.12 395.43 237.38 401.40
  Q 237.63 401.85 237.38 402.30
  C 235.94 404.93 231.12 414.51 227.18 408.31
  Q 198.07 362.55 169.04 316.73
  Q 168.46 315.81 167.56 315.21
  Q 123.04 285.19 115.54 233.19
  C 104.10 153.84 177.55 86.96 255.81 104.70
  Z"
/>
<path fill="#ffffff" d="
  M 241.37 285.47
  L 316.25 208.61
  A 3.70 3.70 0.0 0 1 321.55 208.61
  L 396.43 285.47
  A 3.70 3.70 0.0 0 1 393.78 291.75
  L 244.02 291.75
  A 3.70 3.70 0.0 0 1 241.37 285.47
  Z
  M 336.96 257.61
  A 18.07 18.07 0.0 0 0 318.89 239.54
  A 18.07 18.07 0.0 0 0 300.82 257.61
  A 18.07 18.07 0.0 0 0 318.89 275.68
  A 18.07 18.07 0.0 0 0 336.96 257.61
  Z"
/>
<path fill="#673b8d" d="
  M 336.96 257.61
  A 18.07 18.07 0.0 0 1 318.89 275.68
  A 18.07 18.07 0.0 0 1 300.82 257.61
  A 18.07 18.07 0.0 0 1 318.89 239.54
  A 18.07 18.07 0.0 0 1 336.96 257.61
  Z
  M 329.74 257.61
  A 10.83 10.83 0.0 0 0 318.91 246.78
  A 10.83 10.83 0.0 0 0 308.08 257.61
  A 10.83 10.83 0.0 0 0 318.91 268.44
  A 10.83 10.83 0.0 0 0 329.74 257.61
  Z"
/>
<circle fill="#ffffff" cx="318.91" cy="257.61" r="10.83"/>
<path fill="#ffffff" d="
  M 266.52 410.22
  C 255.09 410.14 245.39 404.12 241.65 393.38
  Q 240.28 389.43 240.27 381.83
  Q 240.22 340.34 240.26 298.85
  Q 240.26 298.38 240.72 298.44
  C 242.39 298.64 244.19 298.99 245.85 298.99
  Q 318.67 299.01 391.48 299.00
  C 393.19 298.99 395.11 298.55 396.96 298.35
  Q 397.53 298.29 397.53 298.87
  Q 397.43 340.23 397.54 381.58
  C 397.57 394.30 393.15 404.77 380.25 408.87
  C 371.39 411.68 357.09 410.25 347.01 410.25
  Q 346.50 410.25 346.50 409.74
  L 346.50 355.75
  A 4.25 4.25 0.0 0 0 342.25 351.50
  L 296.00 351.50
  Q 291.25 351.50 291.25 356.25
  L 291.25 409.74
  Q 291.25 410.22 290.76 410.23
  Q 278.59 410.31 266.52 410.22
  Z
  M 297.7849 310.6116
  A 3.83 3.83 0.0 0 0 293.9616 306.7750
  L 265.3816 306.7251
  A 3.83 3.83 0.0 0 0 261.5450 310.5484
  L 261.4951 339.1284
  A 3.83 3.83 0.0 0 0 265.3184 342.9650
  L 293.8984 343.0149
  A 3.83 3.83 0.0 0 0 297.7350 339.1916
  L 297.7849 310.6116
  Z
  M 376.2653 310.4014
  A 3.62 3.62 0.0 0 0 372.6516 306.7751
  L 343.8916 306.7249
  A 3.62 3.62 0.0 0 0 340.2653 310.3386
  L 340.2147 339.3386
  A 3.62 3.62 0.0 0 0 343.8284 342.9649
  L 372.5884 343.0151
  A 3.62 3.62 0.0 0 0 376.2147 339.4014
  L 376.2653 310.4014
  Z"
/>
<path fill="#673b8d" d="
  M 297.7350 339.1916
  A 3.83 3.83 0.0 0 1 293.8984 343.0149
  L 265.3184 342.9650
  A 3.83 3.83 0.0 0 1 261.4951 339.1284
  L 261.5450 310.5484
  A 3.83 3.83 0.0 0 1 265.3816 306.7251
  L 293.9616 306.7750
  A 3.83 3.83 0.0 0 1 297.7849 310.6116
  L 297.7350 339.1916
  Z
  M 290.50 314.31
  A 0.31 0.31 0.0 0 0 290.19 314.00
  L 269.07 314.00
  A 0.31 0.31 0.0 0 0 268.76 314.31
  L 268.76 335.43
  A 0.31 0.31 0.0 0 0 269.07 335.74
  L 290.19 335.74
  A 0.31 0.31 0.0 0 0 290.50 335.43
  L 290.50 314.31
  Z"
/>
<path fill="#673b8d" d="
  M 376.2147 339.4014
  A 3.62 3.62 0.0 0 1 372.5884 343.0151
  L 343.8284 342.9649
  A 3.62 3.62 0.0 0 1 340.2147 339.3386
  L 340.2653 310.3386
  A 3.62 3.62 0.0 0 1 343.8916 306.7249
  L 372.6516 306.7751
  A 3.62 3.62 0.0 0 1 376.2653 310.4014
  L 376.2147 339.4014
  Z
  M 369.00 314.27
  A 0.26 0.26 0.0 0 0 368.74 314.01
  L 347.74 314.01
  A 0.26 0.26 0.0 0 0 347.48 314.27
  L 347.48 335.49
  A 0.26 0.26 0.0 0 0 347.74 335.75
  L 368.74 335.75
  A 0.26 0.26 0.0 0 0 369.00 335.49
  L 369.00 314.27
  Z"
/>
<rect fill="#ffffff" x="268.76" y="314.00" width="21.74" height="21.74" rx="0.31"/>
<rect fill="#ffffff" x="347.48" y="314.01" width="21.52" height="21.74" rx="0.26"/>
<rect fill="#ffffff" x="298.50" y="358.75" width="40.76" height="51.50" rx="0.27"/>
</svg>
