<?xml version="1.0" encoding="UTF-8" standalone="no"?>
<!DOCTYPE svg PUBLIC "-//W3C//DTD SVG 1.0//EN" "http://www.w3.org/TR/2001/REC-SVG-20010904/DTD/svg10.dtd">
<svg xmlns="http://www.w3.org/2000/svg" version="1.0" viewBox="0.00 0.00 512.00 512.00">
<g stroke-width="2.00" fill="none" stroke-linecap="butt">
<path stroke="#b693d9" vector-effect="non-scaling-stroke" d="
  M 289.21 253.52
  C 291.28 259.07 292.48 259.79 297.78 261.77
  Q 349.66 281.12 400.95 300.22
  Q 401.98 300.60 402.77 299.83
  Q 409.34 293.37 415.44 287.13
  C 421.58 280.84 416.86 276.78 411.77 271.68
  Q 343.58 203.40 275.30 135.20
  C 270.79 130.70 266.86 131.99 262.67 136.20
  Q 256.56 142.33 250.42 148.41
  Q 250.06 148.77 250.23 149.25
  Q 269.72 201.40 289.21 253.52"
/>
<path stroke="#b693d9" vector-effect="non-scaling-stroke" d="
  M 311.46 375.60
  C 317.52 381.60 320.14 382.47 326.70 375.92
  Q 360.97 341.72 395.22 307.37
  Q 395.62 306.97 395.10 306.77
  Q 344.61 287.79 294.06 268.99
  C 289.48 267.28 284.76 264.68 283.20 260.52
  Q 263.54 208.05 243.91 155.50
  A 0.28 0.28 0.0 0 0 243.45 155.40
  Q 208.39 190.50 173.21 225.66
  C 169.28 229.59 169.16 233.38 173.24 237.49
  Q 242.12 306.78 311.46 375.60"
/>
<path stroke="#b693d9" vector-effect="non-scaling-stroke" d="
  M 173.53 203.09
  A 3.74 3.74 0.0 0 0 169.79 199.35
  L 97.03 199.35
  A 3.74 3.74 0.0 0 0 93.29 203.09
  L 93.29 203.25
  A 3.74 3.74 0.0 0 0 97.03 206.99
  L 169.79 206.99
  A 3.74 3.74 0.0 0 0 173.53 203.25
  L 173.53 203.09"
/>
<path stroke="#b693d9" vector-effect="non-scaling-stroke" d="
  M 177.70 266.95
  A 3.70 3.70 0.0 0 0 174.00 263.25
  L 98.42 263.25
  A 3.70 3.70 0.0 0 0 94.72 266.95
  L 94.72 267.05
  A 3.70 3.70 0.0 0 0 98.42 270.75
  L 174.00 270.75
  A 3.70 3.70 0.0 0 0 177.70 267.05
  L 177.70 266.95"
/>
<path stroke="#b693d9" vector-effect="non-scaling-stroke" d="
  M 213.47 302.69
  A 3.69 3.69 0.0 0 0 209.78 299.00
  L 160.66 299.00
  A 3.69 3.69 0.0 0 0 156.97 302.69
  L 156.97 302.81
  A 3.69 3.69 0.0 0 0 160.66 306.50
  L 209.78 306.50
  A 3.69 3.69 0.0 0 0 213.47 302.81
  L 213.47 302.69"
/>
<path stroke="#b693d9" vector-effect="non-scaling-stroke" d="
  M 252.21 341.50
  A 3.74 3.74 0.0 0 0 248.47 337.76
  L 162.29 337.76
  A 3.74 3.74 0.0 0 0 158.55 341.50
  L 158.55 341.60
  A 3.74 3.74 0.0 0 0 162.29 345.34
  L 248.47 345.34
  A 3.74 3.74 0.0 0 0 252.21 341.60
  L 252.21 341.50"
/>
<path stroke="#b693d9" vector-effect="non-scaling-stroke" d="
  M 206.0359 219.9207
  A 5.19 5.19 0.0 0 0 198.6962 219.9207
  L 190.7907 227.8262
  A 5.19 5.19 0.0 0 0 190.7907 235.1659
  L 239.2841 283.6593
  A 5.19 5.19 0.0 0 0 246.6238 283.6593
  L 254.5293 275.7538
  A 5.19 5.19 0.0 0 0 254.5293 268.4141
  L 206.0359 219.9207"
/>
<path stroke="#b693d9" vector-effect="non-scaling-stroke" d="
  M 246.4324 272.4297
  A 0.44 0.44 0.0 0 0 246.4324 271.8075
  L 202.6625 228.0376
  A 0.44 0.44 0.0 0 0 202.0403 228.0376
  L 198.7876 231.2903
  A 0.44 0.44 0.0 0 0 198.7876 231.9125
  L 242.5575 275.6824
  A 0.44 0.44 0.0 0 0 243.1797 275.6824
  L 246.4324 272.4297"
/>
</g>
<path fill="#6c27b3" d="
  M 271.41 512.00
  L 240.46 512.00
  C 109.36 503.63 7.52 399.76 0.00 269.17
  L 0.00 243.96
  C 6.59 119.80 100.49 17.68 224.37 2.35
  C 327.91 -10.46 430.41 41.64 480.15 133.25
  C 569.92 298.57 458.69 499.69 271.41 512.00
  Z
  M 289.21 253.52
  C 291.28 259.07 292.48 259.79 297.78 261.77
  Q 349.66 281.12 400.95 300.22
  Q 401.98 300.60 402.77 299.83
  Q 409.34 293.37 415.44 287.13
  C 421.58 280.84 416.86 276.78 411.77 271.68
  Q 343.58 203.40 275.30 135.20
  C 270.79 130.70 266.86 131.99 262.67 136.20
  Q 256.56 142.33 250.42 148.41
  Q 250.06 148.77 250.23 149.25
  Q 269.72 201.40 289.21 253.52
  Z
  M 311.46 375.60
  C 317.52 381.60 320.14 382.47 326.70 375.92
  Q 360.97 341.72 395.22 307.37
  Q 395.62 306.97 395.10 306.77
  Q 344.61 287.79 294.06 268.99
  C 289.48 267.28 284.76 264.68 283.20 260.52
  Q 263.54 208.05 243.91 155.50
  A 0.28 0.28 0.0 0 0 243.45 155.40
  Q 208.39 190.50 173.21 225.66
  C 169.28 229.59 169.16 233.38 173.24 237.49
  Q 242.12 306.78 311.46 375.60
  Z
  M 173.53 203.09
  A 3.74 3.74 0.0 0 0 169.79 199.35
  L 97.03 199.35
  A 3.74 3.74 0.0 0 0 93.29 203.09
  L 93.29 203.25
  A 3.74 3.74 0.0 0 0 97.03 206.99
  L 169.79 206.99
  A 3.74 3.74 0.0 0 0 173.53 203.25
  L 173.53 203.09
  Z
  M 177.70 266.95
  A 3.70 3.70 0.0 0 0 174.00 263.25
  L 98.42 263.25
  A 3.70 3.70 0.0 0 0 94.72 266.95
  L 94.72 267.05
  A 3.70 3.70 0.0 0 0 98.42 270.75
  L 174.00 270.75
  A 3.70 3.70 0.0 0 0 177.70 267.05
  L 177.70 266.95
  Z
  M 213.47 302.69
  A 3.69 3.69 0.0 0 0 209.78 299.00
  L 160.66 299.00
  A 3.69 3.69 0.0 0 0 156.97 302.69
  L 156.97 302.81
  A 3.69 3.69 0.0 0 0 160.66 306.50
  L 209.78 306.50
  A 3.69 3.69 0.0 0 0 213.47 302.81
  L 213.47 302.69
  Z
  M 252.21 341.50
  A 3.74 3.74 0.0 0 0 248.47 337.76
  L 162.29 337.76
  A 3.74 3.74 0.0 0 0 158.55 341.50
  L 158.55 341.60
  A 3.74 3.74 0.0 0 0 162.29 345.34
  L 248.47 345.34
  A 3.74 3.74 0.0 0 0 252.21 341.60
  L 252.21 341.50
  Z"
/>
<path fill="#ffffff" d="
  M 297.78 261.77
  C 292.48 259.79 291.28 259.07 289.21 253.52
  Q 269.72 201.40 250.23 149.25
  Q 250.06 148.77 250.42 148.41
  Q 256.56 142.33 262.67 136.20
  C 266.86 131.99 270.79 130.70 275.30 135.20
  Q 343.58 203.40 411.77 271.68
  C 416.86 276.78 421.58 280.84 415.44 287.13
  Q 409.34 293.37 402.77 299.83
  Q 401.98 300.60 400.95 300.22
  Q 349.66 281.12 297.78 261.77
  Z"
/>
<path fill="#ffffff" d="
  M 311.46 375.60
  Q 242.12 306.78 173.24 237.49
  C 169.16 233.38 169.28 229.59 173.21 225.66
  Q 208.39 190.50 243.45 155.40
  A 0.28 0.28 0.0 0 1 243.91 155.50
  Q 263.54 208.05 283.20 260.52
  C 284.76 264.68 289.48 267.28 294.06 268.99
  Q 344.61 287.79 395.10 306.77
  Q 395.62 306.97 395.22 307.37
  Q 360.97 341.72 326.70 375.92
  C 320.14 382.47 317.52 381.60 311.46 375.60
  Z
  M 206.0359 219.9207
  A 5.19 5.19 0.0 0 0 198.6962 219.9207
  L 190.7907 227.8262
  A 5.19 5.19 0.0 0 0 190.7907 235.1659
  L 239.2841 283.6593
  A 5.19 5.19 0.0 0 0 246.6238 283.6593
  L 254.5293 275.7538
  A 5.19 5.19 0.0 0 0 254.5293 268.4141
  L 206.0359 219.9207
  Z"
/>
<rect fill="#ffffff" x="93.29" y="199.35" width="80.24" height="7.64" rx="3.74"/>
<path fill="#6c27b3" d="
  M 254.5293 268.4141
  A 5.19 5.19 0.0 0 1 254.5293 275.7538
  L 246.6238 283.6593
  A 5.19 5.19 0.0 0 1 239.2841 283.6593
  L 190.7907 235.1659
  A 5.19 5.19 0.0 0 1 190.7907 227.8262
  L 198.6962 219.9207
  A 5.19 5.19 0.0 0 1 206.0359 219.9207
  L 254.5293 268.4141
  Z
  M 246.4324 272.4297
  A 0.44 0.44 0.0 0 0 246.4324 271.8075
  L 202.6625 228.0376
  A 0.44 0.44 0.0 0 0 202.0403 228.0376
  L 198.7876 231.2903
  A 0.44 0.44 0.0 0 0 198.7876 231.9125
  L 242.5575 275.6824
  A 0.44 0.44 0.0 0 0 243.1797 275.6824
  L 246.4324 272.4297
  Z"
/>
<rect fill="#ffffff" x="-31.39" y="-2.74" transform="translate(222.61,251.86) rotate(45.0)" width="62.78" height="5.48" rx="0.44"/>
<rect fill="#ffffff" x="94.72" y="263.25" width="82.98" height="7.50" rx="3.70"/>
<rect fill="#ffffff" x="156.97" y="299.00" width="56.50" height="7.50" rx="3.69"/>
<rect fill="#ffffff" x="158.55" y="337.76" width="93.66" height="7.58" rx="3.74"/>
</svg>
