<?xml version="1.0" encoding="UTF-8" standalone="no"?>
<!DOCTYPE svg PUBLIC "-//W3C//DTD SVG 1.0//EN" "http://www.w3.org/TR/2001/REC-SVG-20010904/DTD/svg10.dtd">
<svg xmlns="http://www.w3.org/2000/svg" version="1.0" viewBox="0.00 0.00 512.00 512.00">
<g stroke-width="2.00" fill="none" stroke-linecap="butt">
<path stroke="#b79fd5" vector-effect="non-scaling-stroke" d="
  M 234.68 376.28
  Q 280.78 378.76 326.53 370.65
  C 357.59 365.14 387.10 340.22 399.82 311.29
  Q 403.07 303.91 405.29 292.28
  Q 415.66 237.86 405.92 183.31
  Q 403.81 171.50 400.86 164.01
  C 389.88 136.15 360.62 109.81 330.87 103.09
  Q 326.46 102.09 311.12 99.97
  Q 248.00 91.25 185.17 102.48
  C 154.99 107.87 129.65 129.80 114.98 155.74
  C 112.37 160.35 109.55 166.88 108.53 171.51
  Q 94.53 234.67 107.86 297.97
  C 114.64 330.21 145.14 358.05 175.76 368.52
  Q 176.26 368.69 176.26 369.22
  Q 176.23 383.87 176.27 398.51
  Q 176.29 404.00 176.98 406.27
  C 180.03 416.37 192.58 418.91 199.76 411.51
  Q 216.43 394.31 233.19 376.86
  Q 233.80 376.23 234.68 376.28"
/>
<path stroke="#b79fd5" vector-effect="non-scaling-stroke" d="
  M 134.79 291.74
  C 139.64 314.85 164.84 336.43 186.65 342.93
  A 1.17 1.17 0.0 0 1 187.48 344.05
  L 187.53 401.00
  A 0.49 0.18 49.6 0 0 187.62 401.25
  C 189.70 404.68 192.06 403.36 194.24 401.12
  Q 219.42 375.36 244.57 349.57
  Q 245.09 349.04 246.25 349.07
  Q 284.86 350.12 324.48 342.61
  C 345.11 338.70 372.26 314.27 376.94 293.19
  Q 388.36 241.80 378.70 188.49
  Q 376.70 177.46 373.63 171.07
  C 365.45 154.03 344.09 133.76 325.50 130.27
  Q 258.05 117.64 190.63 129.53
  C 165.54 133.96 139.05 158.54 134.15 183.93
  Q 123.61 238.43 134.79 291.74"
/>
<path stroke="#b79fd5" vector-effect="non-scaling-stroke" d="
  M 256.46 157.20
  C 254.28 157.16 251.93 156.87 250.49 158.73
  C 246.68 163.66 252.55 165.93 256.40 166.09
  C 284.55 167.26 308.06 182.35 318.77 208.25
  C 322.96 218.38 323.31 228.83 324.31 239.26
  C 324.97 246.16 332.94 245.40 332.98 240.75
  C 333.07 231.19 331.12 217.92 327.96 208.69
  C 317.50 178.18 288.85 157.76 256.46 157.20"
/>
<path stroke="#b79fd5" vector-effect="non-scaling-stroke" d="
  M 243.28 265.22
  C 231.84 256.46 223.47 243.72 218.62 230.14
  C 214.88 219.68 223.72 218.20 228.84 211.95
  Q 234.22 205.39 229.92 197.32
  Q 223.65 185.57 211.89 171.92
  Q 208.60 168.10 206.70 167.05
  C 198.78 162.72 185.76 174.25 180.95 180.41
  C 175.79 187.02 173.97 192.62 177.12 200.56
  C 189.95 232.87 207.47 263.06 235.28 284.78
  C 253.98 299.38 275.20 311.51 297.93 318.92
  Q 300.04 319.61 302.12 319.12
  C 313.03 316.53 321.99 306.88 326.40 297.08
  C 330.13 288.78 324.80 285.01 318.38 280.07
  Q 309.63 273.33 300.41 267.19
  C 278.96 252.90 281.04 277.25 268.26 276.77
  C 260.43 276.48 249.41 269.92 243.28 265.22"
/>
<path stroke="#b79fd5" vector-effect="non-scaling-stroke" d="
  M 259.72 177.36
  C 256.21 177.29 255.39 182.10 257.20 184.09
  Q 258.36 185.36 261.39 185.78
  C 289.56 189.73 302.77 204.08 304.42 232.43
  C 304.62 235.91 308.63 237.66 311.06 235.62
  C 313.58 233.51 312.87 229.07 312.59 225.94
  C 309.99 197.04 288.78 177.94 259.72 177.36"
/>
<path stroke="#b79fd5" vector-effect="non-scaling-stroke" d="
  M 266.25 197.79
  C 259.76 198.58 260.84 206.06 267.85 206.65
  C 277.47 207.47 283.16 213.45 284.22 222.92
  Q 284.53 225.68 284.95 226.76
  C 285.96 229.38 289.87 231.07 292.10 228.58
  C 293.71 226.79 292.96 221.49 292.33 218.48
  C 290.05 207.58 283.06 201.29 272.64 198.70
  Q 268.09 197.57 266.25 197.79"
/>
</g>
<path fill="#6f3faa" d="
  M 249.34 0.00
  L 262.79 0.00
  C 400.26 4.51 509.09 114.08 512.00 251.82
  L 512.00 260.55
  C 508.54 398.69 399.34 508.64 260.91 512.00
  L 249.71 512.00
  C 112.52 507.72 4.21 399.21 0.00 262.17
  L 0.00 250.95
  C 3.33 113.47 112.24 4.48 249.34 0.00
  Z
  M 234.68 376.28
  Q 280.78 378.76 326.53 370.65
  C 357.59 365.14 387.10 340.22 399.82 311.29
  Q 403.07 303.91 405.29 292.28
  Q 415.66 237.86 405.92 183.31
  Q 403.81 171.50 400.86 164.01
  C 389.88 136.15 360.62 109.81 330.87 103.09
  Q 326.46 102.09 311.12 99.97
  Q 248.00 91.25 185.17 102.48
  C 154.99 107.87 129.65 129.80 114.98 155.74
  C 112.37 160.35 109.55 166.88 108.53 171.51
  Q 94.53 234.67 107.86 297.97
  C 114.64 330.21 145.14 358.05 175.76 368.52
  Q 176.26 368.69 176.26 369.22
  Q 176.23 383.87 176.27 398.51
  Q 176.29 404.00 176.98 406.27
  C 180.03 416.37 192.58 418.91 199.76 411.51
  Q 216.43 394.31 233.19 376.86
  Q 233.80 376.23 234.68 376.28
  Z"
/>
<path fill="#ffffff" d="
  M 234.68 376.28
  Q 233.80 376.23 233.19 376.86
  Q 216.43 394.31 199.76 411.51
  C 192.58 418.91 180.03 416.37 176.98 406.27
  Q 176.29 404.00 176.27 398.51
  Q 176.23 383.87 176.26 369.22
  Q 176.26 368.69 175.76 368.52
  C 145.14 358.05 114.64 330.21 107.86 297.97
  Q 94.53 234.67 108.53 171.51
  C 109.55 166.88 112.37 160.35 114.98 155.74
  C 129.65 129.80 154.99 107.87 185.17 102.48
  Q 248.00 91.25 311.12 99.97
  Q 326.46 102.09 330.87 103.09
  C 360.62 109.81 389.88 136.15 400.86 164.01
  Q 403.81 171.50 405.92 183.31
  Q 415.66 237.86 405.29 292.28
  Q 403.07 303.91 399.82 311.29
  C 387.10 340.22 357.59 365.14 326.53 370.65
  Q 280.78 378.76 234.68 376.28
  Z
  M 134.79 291.74
  C 139.64 314.85 164.84 336.43 186.65 342.93
  A 1.17 1.17 0.0 0 1 187.48 344.05
  L 187.53 401.00
  A 0.49 0.18 49.6 0 0 187.62 401.25
  C 189.70 404.68 192.06 403.36 194.24 401.12
  Q 219.42 375.36 244.57 349.57
  Q 245.09 349.04 246.25 349.07
  Q 284.86 350.12 324.48 342.61
  C 345.11 338.70 372.26 314.27 376.94 293.19
  Q 388.36 241.80 378.70 188.49
  Q 376.70 177.46 373.63 171.07
  C 365.45 154.03 344.09 133.76 325.50 130.27
  Q 258.05 117.64 190.63 129.53
  C 165.54 133.96 139.05 158.54 134.15 183.93
  Q 123.61 238.43 134.79 291.74
  Z"
/>
<path fill="#6f3faa" d="
  M 186.65 342.93
  C 164.84 336.43 139.64 314.85 134.79 291.74
  Q 123.61 238.43 134.15 183.93
  C 139.05 158.54 165.54 133.96 190.63 129.53
  Q 258.05 117.64 325.50 130.27
  C 344.09 133.76 365.45 154.03 373.63 171.07
  Q 376.70 177.46 378.70 188.49
  Q 388.36 241.80 376.94 293.19
  C 372.26 314.27 345.11 338.70 324.48 342.61
  Q 284.86 350.12 246.25 349.07
  Q 245.09 349.04 244.57 349.57
  Q 219.42 375.36 194.24 401.12
  C 192.06 403.36 189.70 404.68 187.62 401.25
  A 0.49 0.18 49.6 0 1 187.53 401.00
  L 187.48 344.05
  A 1.17 1.17 0.0 0 0 186.65 342.93
  Z
  M 256.46 157.20
  C 254.28 157.16 251.93 156.87 250.49 158.73
  C 246.68 163.66 252.55 165.93 256.40 166.09
  C 284.55 167.26 308.06 182.35 318.77 208.25
  C 322.96 218.38 323.31 228.83 324.31 239.26
  C 324.97 246.16 332.94 245.40 332.98 240.75
  C 333.07 231.19 331.12 217.92 327.96 208.69
  C 317.50 178.18 288.85 157.76 256.46 157.20
  Z
  M 243.28 265.22
  C 231.84 256.46 223.47 243.72 218.62 230.14
  C 214.88 219.68 223.72 218.20 228.84 211.95
  Q 234.22 205.39 229.92 197.32
  Q 223.65 185.57 211.89 171.92
  Q 208.60 168.10 206.70 167.05
  C 198.78 162.72 185.76 174.25 180.95 180.41
  C 175.79 187.02 173.97 192.62 177.12 200.56
  C 189.95 232.87 207.47 263.06 235.28 284.78
  C 253.98 299.38 275.20 311.51 297.93 318.92
  Q 300.04 319.61 302.12 319.12
  C 313.03 316.53 321.99 306.88 326.40 297.08
  C 330.13 288.78 324.80 285.01 318.38 280.07
  Q 309.63 273.33 300.41 267.19
  C 278.96 252.90 281.04 277.25 268.26 276.77
  C 260.43 276.48 249.41 269.92 243.28 265.22
  Z
  M 259.72 177.36
  C 256.21 177.29 255.39 182.10 257.20 184.09
  Q 258.36 185.36 261.39 185.78
  C 289.56 189.73 302.77 204.08 304.42 232.43
  C 304.62 235.91 308.63 237.66 311.06 235.62
  C 313.58 233.51 312.87 229.07 312.59 225.94
  C 309.99 197.04 288.78 177.94 259.72 177.36
  Z
  M 266.25 197.79
  C 259.76 198.58 260.84 206.06 267.85 206.65
  C 277.47 207.47 283.16 213.45 284.22 222.92
  Q 284.53 225.68 284.95 226.76
  C 285.96 229.38 289.87 231.07 292.10 228.58
  C 293.71 226.79 292.96 221.49 292.33 218.48
  C 290.05 207.58 283.06 201.29 272.64 198.70
  Q 268.09 197.57 266.25 197.79
  Z"
/>
<path fill="#ffffff" d="
  M 256.46 157.20
  C 288.85 157.76 317.50 178.18 327.96 208.69
  C 331.12 217.92 333.07 231.19 332.98 240.75
  C 332.94 245.40 324.97 246.16 324.31 239.26
  C 323.31 228.83 322.96 218.38 318.77 208.25
  C 308.06 182.35 284.55 167.26 256.40 166.09
  C 252.55 165.93 246.68 163.66 250.49 158.73
  C 251.93 156.87 254.28 157.16 256.46 157.20
  Z"
/>
<path fill="#ffffff" d="
  M 243.28 265.22
  C 249.41 269.92 260.43 276.48 268.26 276.77
  C 281.04 277.25 278.96 252.90 300.41 267.19
  Q 309.63 273.33 318.38 280.07
  C 324.80 285.01 330.13 288.78 326.40 297.08
  C 321.99 306.88 313.03 316.53 302.12 319.12
  Q 300.04 319.61 297.93 318.92
  C 275.20 311.51 253.98 299.38 235.28 284.78
  C 207.47 263.06 189.95 232.87 177.12 200.56
  C 173.97 192.62 175.79 187.02 180.95 180.41
  C 185.76 174.25 198.78 162.72 206.70 167.05
  Q 208.60 168.10 211.89 171.92
  Q 223.65 185.57 229.92 197.32
  Q 234.22 205.39 228.84 211.95
  C 223.72 218.20 214.88 219.68 218.62 230.14
  C 223.47 243.72 231.84 256.46 243.28 265.22
  Z"
/>
<path fill="#ffffff" d="
  M 257.20 184.09
  C 255.39 182.10 256.21 177.29 259.72 177.36
  C 288.78 177.94 309.99 197.04 312.59 225.94
  C 312.87 229.07 313.58 233.51 311.06 235.62
  C 308.63 237.66 304.62 235.91 304.42 232.43
  C 302.77 204.08 289.56 189.73 261.39 185.78
  Q 258.36 185.36 257.20 184.09
  Z"
/>
<path fill="#ffffff" d="
  M 267.85 206.65
  C 260.84 206.06 259.76 198.58 266.25 197.79
  Q 268.09 197.57 272.64 198.70
  C 283.06 201.29 290.05 207.58 292.33 218.48
  C 292.96 221.49 293.71 226.79 292.10 228.58
  C 289.87 231.07 285.96 229.38 284.95 226.76
  Q 284.53 225.68 284.22 222.92
  C 283.16 213.45 277.47 207.47 267.85 206.65
  Z"
/>
</svg>
